<svg xmlns="http://www.w3.org/2000/svg" viewBox="0 0 56.79 56.59"><defs><style>.cls-1{fill:#e8f9f1;}.cls-2{fill:none;stroke:#99a7ad;stroke-miterlimit:10;stroke-width:2px;}.cls-3{fill:#2b3038;}.cls-4{fill:#dba9a9;}</style></defs><title>gravatar1</title><g id="Calque_2" data-name="Calque 2"><g id="blurbs"><path class="cls-1" d="M38.26,48.85c4-3.19,1.72-9.89,3-12,1.8-3,5.66-4,8-6.6,3.39-3.75,2.62-9.76-.07-14S42.07,8.85,37.42,6.62,27.78,3,22.86,1.39C19.24.22,15-.95,11.87,1.2A11.89,11.89,0,0,0,8.6,5.32C6.69,8.65,4.72,12.25,5.07,16.05,5.25,18,6,19.84,6,21.79c0,5.15-5.46,9-6,14.13-.35,3.43,1.68,6.77,4.44,8.89s8.26.53,12.51,1.38C20.45,46.88,30.64,55,38.26,48.85Z"/><path class="cls-2" d="M32.17,6.93a9.62,9.62,0,0,0,6.74,8.12,9.62,9.62,0,0,0,10-3.29"/><path class="cls-2" d="M42.35,27.8c1.67-1.42,4.26-.85,6.12.3a12.31,12.31,0,0,1,5.58,8.3"/><path class="cls-2" d="M41.83,5.48A4.75,4.75,0,0,1,45.63,3a9.23,9.23,0,0,1,10.16,8.66"/><path class="cls-3" d="M29.46,46.15c.49,2.16,3.54,2.54,4.11,3.41.82,1.26.51,3,1.08,4.37.82,2,3.32,2.86,5.48,2.61a12.05,12.05,0,0,0,6-2.75,49.52,49.52,0,0,0,4.79-4.71c1.14-1.2,2.4-2.64,2.15-4.27a5.23,5.23,0,0,0-1-2.05c-.94-1.37-2-2.82-3.53-3.4-.79-.3-1.66-.34-2.42-.71-2-1-2.49-3.83-4.4-5a4.52,4.52,0,0,0-4.31.06c-1.35.69-1.77,3.14-2.9,4.64C33.59,39.56,28.51,42,29.46,46.15Z"/><path class="cls-4" d="M.47,4c.34-4.28,9-5,12.77-2.86,2.55,1.42,4.62,5.21,7.29,6.4a17.46,17.46,0,0,1,2.55,1.09c2.61,1.71,2.17,6-.07,8.17s-4.19,2.46-7.15,3.47c-2,.69-2.54,4.66-8.18-.78A7.22,7.22,0,0,1,6,15C6,12.24.31,6.13.47,4Z"/></g></g></svg>