<svg xmlns="http://www.w3.org/2000/svg" viewBox="0 0 57.2 53.65"><defs><style>.cls-1{fill:#2b3038;}.cls-2{fill:#99a7ad;}.cls-3{fill:none;stroke:#dba9a9;stroke-miterlimit:10;stroke-width:2px;}.cls-4{fill:#e8f9f1;}</style></defs><title>gravatar3</title><g id="Calque_2" data-name="Calque 2"><g id="blurbs"><path class="cls-1" d="M49.31,13.73c-3.11-4.06-9.86-1.93-11.88-3.21C34.51,8.66,33.52,4.77,31,2.39c-3.67-3.47-9.7-2.82-14-.22S9.4,9.08,7.07,13.68,3.21,23.25,1.53,28.14C.29,31.73-1,36,1.12,39.12a11.75,11.75,0,0,0,4,3.35c3.29,2,6.85,4,10.65,3.76,1.94-.13,3.82-.88,5.76-.83,5.16.14,8.88,5.65,14,6.28,3.43.42,6.81-1.54,9-4.25s.7-8.26,1.64-12.48C47,31.5,55.25,21.48,49.31,13.73Z"/><path class="cls-2" d="M33.56,15.15c.5,2.17,3.55,2.54,4.12,3.42.81,1.26.5,3,1.07,4.37.83,2,3.32,2.86,5.49,2.61a12.12,12.12,0,0,0,6-2.76A49.61,49.61,0,0,0,55,18.08c1.13-1.2,2.39-2.63,2.14-4.26a5.32,5.32,0,0,0-1-2.06c-1-1.37-2-2.82-3.53-3.4a24.1,24.1,0,0,1-2.42-.71c-2-1-2.49-3.83-4.4-5a4.51,4.51,0,0,0-4.32.06c-1.34.68-1.76,3.13-2.89,4.63C37.69,8.56,32.62,11,33.56,15.15Z"/><path class="cls-3" d="M32.61,28.41a9.37,9.37,0,0,0,16.75,4.83"/><path class="cls-3" d="M29.78,43.92c1.67-1.41,4.26-.85,6.12.3a12.35,12.35,0,0,1,5.59,8.3"/><path class="cls-4" d="M4.85,27.15c6.26-4.28,9.44-3.33,13.19-1.24,2.55,1.43,2.48,10,5.15,11.21a17.46,17.46,0,0,1,2.55,1.09c2.61,1.71,2.17,6-.07,8.17s-.65,4.51-3.61,5.51c-2,.69-6.08,4.21-11.72-1.23-1-1-5.24-6.71-5.27-8.12C5,39.73,3.09,28.35,4.85,27.15Z"/><path class="cls-3" d="M15.82,10.81a4.77,4.77,0,0,1,3.8-2.47A9.24,9.24,0,0,1,29.78,17"/></g></g></svg>