<svg xmlns="http://www.w3.org/2000/svg" viewBox="0 0 55.92 51.77"><defs><style>.cls-1{fill:#dba9a9;}.cls-2{fill:#99a7ad;}.cls-3{fill:none;stroke:#e8f9f1;stroke-miterlimit:10;stroke-width:2px;}.cls-4{fill:#2b3038;}</style></defs><title>gravatar2</title><g id="Calque_2" data-name="Calque 2"><g id="blurbs"><path class="cls-1" d="M38.26,48.85c4-3.19,1.72-9.89,3-12,1.8-3,5.66-4,8-6.6,3.39-3.75,2.62-9.76-.07-14S42.07,8.85,37.42,6.62,27.78,3,22.86,1.39C19.24.22,15-.95,11.87,1.2A11.89,11.89,0,0,0,8.6,5.32C6.69,8.65,4.72,12.25,5.07,16.05,5.25,18,6,19.84,6,21.79c0,5.15-5.46,9-6,14.13-.35,3.43,1.68,6.77,4.44,8.89s8.26.53,12.51,1.38C20.45,46.88,30.64,55,38.26,48.85Z"/><path class="cls-2" d="M32.28,38.74c.5,2.16,3.55,2.54,4.12,3.41.81,1.26.5,3,1.07,4.37.83,2,3.32,2.86,5.49,2.61a12,12,0,0,0,6-2.76,49.5,49.5,0,0,0,4.8-4.7c1.13-1.2,2.39-2.64,2.14-4.27a5.21,5.21,0,0,0-1-2c-.94-1.37-2-2.83-3.53-3.4-.79-.3-1.67-.34-2.42-.71-2-1-2.49-3.84-4.4-5a4.54,4.54,0,0,0-4.32.06c-1.34.68-1.76,3.13-2.89,4.63C36.41,32.15,31.34,34.61,32.28,38.74Z"/><path class="cls-3" d="M32.17,27.49a9.38,9.38,0,0,0,16.76,4.83"/><path class="cls-3" d="M29.34,43c1.67-1.41,4.26-.85,6.12.3a12.35,12.35,0,0,1,5.59,8.3"/><path class="cls-4" d="M4.41,4.34C10.67.06,13.85,1,17.6,3.1c2.55,1.43,2.48,10,5.15,11.21A17.46,17.46,0,0,1,25.3,15.4c2.61,1.71,2.17,6-.07,8.17s-.65,4.51-3.61,5.51c-2,.69-6.08,4.21-11.72-1.23-1-1-5.24-6.72-5.27-8.12C4.57,16.92,2.65,5.54,4.41,4.34Z"/><path class="cls-3" d="M15.38,9.89a4.77,4.77,0,0,1,3.8-2.47,9.23,9.23,0,0,1,10.16,8.66"/></g></g></svg>