<svg xmlns="http://www.w3.org/2000/svg" viewBox="0 0 55 55"><defs><style>.cls-1{fill:#99a7ad;}</style></defs><title>btn_more-2</title><g id="Calque_2" data-name="Calque 2"><g id="blurbs"><path class="cls-1" d="M32.22,1.48C24.87-.71,17.84-1,14.58,4.4c-1.35,2.25-2.17,6.58-3.67,8.75-1.4,2-7.31,3.52-8.67,5.57A13.32,13.32,0,0,0,.42,23.9,31.25,31.25,0,0,0,8.54,50.34c3.06,3.19,7.7,5.84,11.78,4.12,3-1.25,4-6.72,6-9.22A15.94,15.94,0,0,1,41,40.14c6.61,1.46,10.67-4.91,11.76-6.57,3.84-5.9,2.07-8.87-.74-15.32S35.7,2.52,32.22,1.48Z"/></g></g></svg>