<svg xmlns="http://www.w3.org/2000/svg" viewBox="0 0 91.42 83.01"><defs><style>.cls-1{fill:#dba9a9;}</style></defs><title>btn_more</title><g id="Calque_2" data-name="Calque 2"><g id="blurbs"><path class="cls-1" d="M1.61,25.2C-1.51,28.1.45,43.44,2.87,47,7.65,53.88,15.59,58,23.63,60.49c3.56,1.1,7.33,2,10.21,4.35,4.66,3.8,6,10.55,10.54,14.52s11.28,4.27,17.17,3a39.28,39.28,0,0,0,23.5-15.83c5.26-7.62,7.66-17.35,5.68-26.39-1.25-5.68-4.13-10.89-7.51-15.62A43.08,43.08,0,0,0,72.73,13.64c-11.06-7.57-32-20.25-40-9.49C24.4,15.39,11.18,16.28,1.61,25.2Z"/></g></g></svg>