<svg xmlns="http://www.w3.org/2000/svg" viewBox="0 0 326.52 311.62"><defs><style>.cls-1{fill:#2b3038;}.cls-2{fill:none;stroke:#dba9a9;stroke-linecap:square;stroke-linejoin:round;stroke-width:5px;}</style></defs><title>soutien_bg-image_1</title><g id="Calque_2" data-name="Calque 2"><g id="blurbs"><path class="cls-1" d="M168.58,9.54C143.05-11.71,89.24,14.16,59,27.91c-17.43,7.92-30.41,23.3-40.31,39.7C8.37,84.69.61,104.08,1.42,124c1,23.66,14.59,46.12,34.33,59.2,12.27,8.13,40.91,17.64,53.31,25.55C111.88,223.31,120.13,244,137,265.2S175.75,301,202.79,302c26.27,1,37.48-25.62,53.87-46.17s35.87-25.39,53-45.32c6.45-7.5,12.13-20.28,14.68-29.84C328.48,165.16,314.71,76,274.61,66c-20.52-5.13-26.33-32.5-37.62-37.63-16.35-7.42-53.33-8.66-68.36-18.47C168.55,9.84,168.65,9.6,168.58,9.54Z"/><path class="cls-1" d="M169.64,8.48C158.77-.24,144.57-1,131.25.8c-16.84,2.32-33.06,8.39-48.65,15S50.87,28.53,38.37,40.17C24.13,53.42,13.16,71.3,6.22,89.36s-8.72,37.92-1.93,56.37a79.2,79.2,0,0,0,32,39.59c14,8.67,30.15,13.45,44.83,20.76,17.29,8.61,28.84,22.95,39.46,38.63,10.46,15.43,21,30.74,36.15,42,13.79,10.31,31.36,17.36,48.81,16.73,15.1-.54,26-11,34.62-22.35,5-6.58,9.52-13.53,14.45-20.16A105.59,105.59,0,0,1,278,238.18c15.29-11,31.36-21,40.36-38.22,5.09-9.73,8.57-19.4,8.16-30.36a184.71,184.71,0,0,0-16.63-68.87C304.93,90,298.51,79.35,289.23,71.88a38.53,38.53,0,0,0-13-7,35.22,35.22,0,0,1-18.15-12.3c-7-8.65-11.46-22-22.45-26.4-14.64-5.79-31-6.77-46.26-10.33a110,110,0,0,1-10.83-3c-1.63-.56-3.24-1.16-4.81-1.88-.68-.31-3.73-2.12-3.65-1.4-.23-1.89-3.23-1.91-3,0,.45,3.68,9.41,5.79,12.35,6.73a189.86,189.86,0,0,0,22.49,5.19c7.43,1.39,14.9,2.64,22.25,4.39,5.7,1.37,12.16,2.68,16.36,7,8.6,8.93,12.63,21.23,22.67,29,4.86,3.77,10.13,4.7,15.61,7a40.31,40.31,0,0,1,13,9.3c16.7,17.27,24.18,43.44,28.62,66.43,1.83,9.52,3.3,19.34,3.16,29.06-.2,13.07-7.63,27.48-16.14,37-12.22,13.69-28.93,21.68-42.38,33.91-12.64,11.5-20.37,26.88-31.39,39.74-5,5.83-10.85,11.26-18.14,14-8.25,3.11-17.46,2.2-25.9.37-17.6-3.82-32.88-14-45-27.06-12.45-13.36-21-29.58-32.38-43.78-10.54-13.19-23.26-21.89-38.54-28.66-14.1-6.24-29.61-11.22-41.87-20.84C17.4,167.23,7,150.67,3.84,132.61.14,111.16,7.6,89.8,18.19,71.4c9.5-16.52,22-32.47,39.42-41.16A388.1,388.1,0,0,1,101,11.78c14.82-5.27,31.07-10.06,47-8.57,7.11.66,14,2.89,19.58,7.39C169,11.8,171.15,9.69,169.64,8.48Z"/><path class="cls-2" d="M144.61,170.08l9.49-15.54"/><path class="cls-2" d="M158.9,167.64,169,153"/><path class="cls-2" d="M175.93,164.78c-.34-2.55,1.54-4.81,3.29-6.69l11.5-12.4"/><path class="cls-2" d="M164.3,182l4-6.27"/><path class="cls-2" d="M145.73,195.18l6.23-9"/><path class="cls-2" d="M125.09,188.34l9.6-10.39"/><path class="cls-2" d="M122.19,168.91c5.74-5.7,11.77-10.87,17.71-16.31"/><path class="cls-2" d="M147.13,181.37a13.74,13.74,0,0,1,3.23-5"/><path class="cls-2" d="M157.38,215.81l8.31-14.46"/><path class="cls-2" d="M187.65,197.14,196,185.46"/><path class="cls-2" d="M178.74,185.46l7-8.17"/><path class="cls-2" d="M197.22,163.25l5.6-5.43"/><path class="cls-2" d="M204.24,178.55a83,83,0,0,1,11.45-11.8"/><path class="cls-2" d="M202.61,196.29a104.45,104.45,0,0,1,8.73-9.95"/><path class="cls-2" d="M188.58,221.47l5.18-6.48"/><path class="cls-2" d="M172.43,219.15A27.11,27.11,0,0,0,179,209"/><path class="cls-2" d="M147,210.22a40.56,40.56,0,0,0,6.12-9"/><path class="cls-2" d="M125.62,209.58a45.72,45.72,0,0,1,9.64-10.38"/><path class="cls-2" d="M131.94,231.77a100.06,100.06,0,0,0,11.24-11.59"/><path class="cls-2" d="M147,240.58l7.53-9"/><path class="cls-2" d="M173.07,239.89a27.4,27.4,0,0,1,4.16-7.64"/><path class="cls-2" d="M108.36,233.68a172.46,172.46,0,0,0,17.28-15.81"/><path class="cls-2" d="M100.07,216.45,111,201.19"/><path class="cls-2" d="M107.78,188.27l6.86-8.3"/><path class="cls-2" d="M112.12,164a7.72,7.72,0,0,1,5.26-5.35"/><path class="cls-2" d="M85.31,239.55l9.25-10.69"/><path class="cls-2" d="M85.68,217.9l9.66-13.79"/><path class="cls-2" d="M89.79,186.84a21.26,21.26,0,0,1,5.51-6.21"/><path class="cls-2" d="M123.43,247.41a81.34,81.34,0,0,1-7.77,8.09"/><path class="cls-2" d="M158.21,248.3l-9.85,17.1"/><path class="cls-2" d="M186.18,242.52l-9.26,8"/><path class="cls-2" d="M206.93,233a142.61,142.61,0,0,1-13.3,13.63"/><path class="cls-2" d="M220.86,201.36l-10.92,14.57"/><path class="cls-2" d="M237,165.77a86.39,86.39,0,0,0-11.39,12.78"/><path class="cls-2" d="M237.28,199.87a93,93,0,0,0,10.15-12.75"/><path class="cls-2" d="M229,221.22l11.09-12.36"/><path class="cls-2" d="M221.46,250.25a78.85,78.85,0,0,0,12.6-15"/><path class="cls-2" d="M193,289.42q8.15-9.54,15.36-19.83"/><path class="cls-2" d="M176.3,282.39a45.11,45.11,0,0,0,11.36-14.2"/><path class="cls-2" d="M158.84,278l8.85-10.44"/><path class="cls-2" d="M145.56,308.11a64.49,64.49,0,0,0,14.87-17"/><path class="cls-2" d="M116.48,306.65l9.07-10.25"/><path class="cls-2" d="M129.85,266.27a20.38,20.38,0,0,0,8.11-8.45"/><path class="cls-2" d="M133.42,288.43a24.8,24.8,0,0,0,6.75-9.17"/><path class="cls-2" d="M105,291.69l8.25-9"/><path class="cls-2" d="M92.65,262.84A26.9,26.9,0,0,0,100.8,253"/><path class="cls-2" d="M89.78,288.89a18,18,0,0,0,5.53-8.26"/><path class="cls-2" d="M91.11,169.54l7-6.83"/><path class="cls-2" d="M65.45,218.42l8.45-12.29"/><path class="cls-2" d="M49.08,248.2a62.1,62.1,0,0,1,9.62-12.45"/><path class="cls-2" d="M67.72,261.31,76,253"/><path class="cls-2" d="M60.85,292.37l5.41-7"/><path class="cls-2" d="M132.48,142.65a88,88,0,0,0,14-17.11"/></g></g></svg>