<svg xmlns="http://www.w3.org/2000/svg" viewBox="0 0 285.16 360.61"><defs><style>.cls-1{fill:#2b3038;}.cls-2{fill:#dba9a9;}.cls-3{fill:#eae1e1;}.cls-4{fill:#99a7ad;}</style></defs><title>soutien_bg-image_4</title><g id="Calque_2" data-name="Calque 2"><g id="blurbs"><path class="cls-1" d="M67.61,10.94c-7.4,8-32.26,8.2-35.59,18.43-2.76,8.48.08,18.41,2.92,27.87L44.46,89c2.61,8.72,5.32,17.63,11,25.74s15,15.42,25.17,17.16c11.76,2,21.75-3.72,27.74-11.13s9.17-16.5,14.68-24.21c6-8.38,14.62-15,21-23.08s10.42-18.71,6.16-29.54c-3.22-8.16-12.84-12-20.27-18.46S119.29,7.6,110.2,3.57,81.61-4.2,67.61,10.94Z"/><path class="cls-2" d="M80.47,95.86C62.29,104.31,55,122.19,49.81,135.49c-3.75,9.7-12.11,17.87-20.25,25.72S7.25,173.2,2.7,182.69c-13.54,28.24,27.13,53.95,48.3,77.1,5.07,5.54,10.48,11,17.69,14.69s16.61,5.14,24.76,2.28c5.9-2.08,10.49-6.13,14.68-10.17,6.08-5.85,12-12.36,13.36-19.8,1.5-8.34-3-16.47-1.91-24.83,1.3-9.94,10.37-18.53,20.65-24.32s22-9.51,32.76-14.61,21.15-12.14,25.41-21.66c4.63-10.34,1.22-21.47-2.84-31.56-3.9-9.7-8.64-19.55-17.65-26.44-8.58-6.57-20.24-9.83-31.82-12.14C124.6,86.93,98.72,84,80.62,95.74A.88.88,0,0,1,80.47,95.86Z"/><path class="cls-3" d="M109.42,47.68c.07,4.89,1.41,9.71,1.45,14.61.11,14.32-10.71,27.13-10.13,41.44.54,13.06,10.34,23.7,20.08,32.42s21,17.13,34,17.09c15.63-.06,28.12-12.17,40.84-21.27,28.65-20.48,67.47-30,84.92-60.64,3.73-6.53,6.23-14.57,3.3-21.5-2-4.69-4.21-13.83-8.5-16.57-23.08-14.72-45.63-14.1-76.32-5-8.06,2.39-29.5.55-45.63-10.79C122.73-4.07,109.2,31.63,109.42,47.68Z"/><path class="cls-4" d="M146.92,284.27c-.86-12.21,6.69-23.81,10.06-35.53,2.25-7.82,4.51-16,3.27-24a28.2,28.2,0,0,0-50.78-12.15c-2.12,3-3.77,6.41-6.81,8.4-7.45,4.88-16.68-1.85-24.22-6.58-11.27-7.06-25.69-9.89-38.14-5.22-14.25,5.35-23.86,20.09-25,35.27s5.31,30.34,15.57,41.58c9.83,10.75,22.89,18.25,32.24,29.41,6.48,7.73,10.94,16.92,16.64,25.25s13.16,16.11,22.87,18.84c10.22,2.86,21.26-.39,30.5-5.6a76,76,0,0,0,28.16-27.75c4.09-7,7.09-15.14,5.82-23.16S150.48,298.61,146.92,284.27Z"/></g></g></svg>