<svg xmlns="http://www.w3.org/2000/svg" viewBox="0 0 159.17 200.72"><defs><style>.cls-1{fill:none;stroke:#2b3038;stroke-linecap:square;stroke-linejoin:round;stroke-width:5px;}</style></defs><title>soutien_bg-image_3</title><g id="Calque_2" data-name="Calque 2"><g id="blurbs"><path class="cls-1" d="M45.94,49.15a132.87,132.87,0,0,0-3.77,27.93"/><path class="cls-1" d="M55.82,37A59.93,59.93,0,0,1,56,57.14"/><path class="cls-1" d="M69.55,45.06v20"/><path class="cls-1" d="M58.49,68.08A38.16,38.16,0,0,1,58.37,87"/><path class="cls-1" d="M80.55,67.06a47.71,47.71,0,0,0-1,13"/><path class="cls-1" d="M84.48,21.05a78.1,78.1,0,0,0-.89,19"/><path class="cls-1" d="M103.48,37.06a174.44,174.44,0,0,1-.32,22"/><path class="cls-1" d="M90.49,52.07a58,58,0,0,1-.92,17"/><path class="cls-1" d="M98.21,85a93.28,93.28,0,0,0-.54,20"/><path class="cls-1" d="M112.55,82.06v17"/><path class="cls-1" d="M124.47,56.05l-1.09,12"/><path class="cls-1" d="M115.55,12.06a74.25,74.25,0,0,0-1,19"/><path class="cls-1" d="M109.55,65.06v10"/><path class="cls-1" d="M130.55,42.06a30.93,30.93,0,0,0-1,11"/><path class="cls-1" d="M136.55,85.06a49.88,49.88,0,0,1,1,14"/><path class="cls-1" d="M125,90a84,84,0,0,0-.57,10.75"/><path class="cls-1" d="M123.42,127.09a59.7,59.7,0,0,1,1.12,15"/><path class="cls-1" d="M111.23,116.07l.38,12"/><path class="cls-1" d="M92.93,122a38,38,0,0,1-.65,17"/><path class="cls-1" d="M84.55,102.06a22.85,22.85,0,0,0-1,9"/><path class="cls-1" d="M69.82,100a88.91,88.91,0,0,1,.65,20"/><path class="cls-1" d="M70.53,143.06l-2.07,14"/><path class="cls-1" d="M57.55,128.06v16"/><path class="cls-1" d="M50.55,104.06v14"/><path class="cls-1" d="M34.16,97l-1.71,19"/><path class="cls-1" d="M25.55,69.06v12"/><path class="cls-1" d="M31.88,28a39.81,39.81,0,0,1-.58,15"/><path class="cls-1" d="M46.67,3a26,26,0,0,1-.39,14"/><path class="cls-1" d="M42.48,125.07a35.26,35.26,0,0,1-.82,13"/><path class="cls-1" d="M20.21,102,19.15,118.1"/><path class="cls-1" d="M5.12,83.17,2.77,103.69"/><path class="cls-1" d="M9.55,43.06v10"/><path class="cls-1" d="M21.34,137a58.92,58.92,0,0,0-.8,14"/><path class="cls-1" d="M39.44,152.07l1.22,19"/><path class="cls-1" d="M65.81,176.85a42.26,42.26,0,0,0-1,19.17"/><path class="cls-1" d="M79.68,158a23.14,23.14,0,0,1,1.86,11.05"/><path class="cls-1" d="M94.48,155.07l1.55,18"/><path class="cls-1" d="M110.56,151.06l1.62,14"/><path class="cls-1" d="M106.55,183.06a12.47,12.47,0,0,1,1,7"/><path class="cls-1" d="M137.5,128a31.2,31.2,0,0,0-.87,12"/><path class="cls-1" d="M149.55,54.06l3,13"/><path class="cls-1" d="M152.84,96.1a105,105,0,0,0-.35,26"/><path class="cls-1" d="M153.49,152.38q1.41,9.39,2.84,18.77"/><path class="cls-1" d="M136.13,153.87A29.94,29.94,0,0,0,134.68,174"/><path class="cls-1" d="M125.66,181.07l-1.22,17"/></g></g></svg>