<svg xmlns="http://www.w3.org/2000/svg" viewBox="0 0 269.2 293.2"><defs><style>.cls-1{fill:#99a7ad;}.cls-2{fill:#2b3038;}.cls-3{fill:#dba9a9;}</style></defs><title>soutien_bg-image_2</title><g id="Calque_2" data-name="Calque 2"><g id="blurbs"><path class="cls-1" d="M62.16,181.65c.07,5.17,1.48,10.26,1.52,15.44.13,15.13-11.32,28.68-10.7,43.8.57,13.8,10.93,25,21.22,34.25s22.21,18.11,35.93,18.06c16.53-.05,29.72-12.85,43.17-22.47,30.27-21.65,71.3-31.76,89.75-64.09,3.93-6.9,6.57-15.4,3.48-22.72-2.1-4.95-4.45-14.61-9-17.51-24.39-15.56-48.22-14.9-80.66-5.26-8.51,2.53-31.16.59-48.22-11.39C76.23,127,61.92,164.68,62.16,181.65Z"/><path class="cls-2" d="M144.67,134.8c2.51,13.58-12,35.56-5.15,47.56,5.66,9.95,14.26,22.9,25.69,22.18,54-3.36,35.66,29.8,47.06,39.78,9.39,8.22,34.94,2.86,44.21-5,7.32-6.19,14.95-27.38,12.12-39.21S254.37,173.89,251,162.21c-3.67-12.69-4.23-26.08-7.47-38.88s-9.94-25.74-21.76-31.62c-8.92-4.43-17.91.59-27.84,1.38s-21.63-6.55-30.47-2.15S139.91,109.09,144.67,134.8Z"/><path class="cls-3" d="M50.9,115.13c11.12,11.31,13.43,29.08,20,43.47,4.37,9.59,9,19.5,16.94,26.39a36.54,36.54,0,0,0,60.27-30.72c-.4-4.69-1.68-9.49-.36-14,3.24-11.06,18-12.19,29.4-13.88,17-2.51,33.64-11.84,42-26.91,9.54-17.26,6.62-39.87-5-55.81S183.37,18.23,163.8,15.79c-18.72-2.34-37.89,1.25-56.5-1.88C94.42,11.74,82.3,6.43,69.69,3S43.16-1.81,31.3,3.67C18.83,9.44,10.68,21.93,6,34.83a98.36,98.36,0,0,0-4.41,51C3.4,96.2,7.27,106.74,15.27,113.57S35.34,104,50.9,115.13Z"/></g></g></svg>